<?xml version="1.0" standalone="no"?>
<!DOCTYPE svg PUBLIC "-//W3C//DTD SVG 20010904//EN"
 "http://www.w3.org/TR/2001/REC-SVG-20010904/DTD/svg10.dtd">
<svg version="1.0" xmlns="http://www.w3.org/2000/svg"
 width="100.000000pt" height="100.000000pt" viewBox="0 0 100.000000 100.000000"
 preserveAspectRatio="xMidYMid meet">
<metadata>
Created by potrace 1.10, written by Peter Selinger 2001-2011
</metadata>
<g transform="translate(0.000000,100.000000) scale(0.100000,-0.100000)"
fill="#0fff21" stroke="none">
<path d="M470 969 c-14 -6 -37 -22 -53 -37 -21 -20 -30 -23 -39 -14 -8 8 -55
12 -144 12 -126 0 -134 -1 -148 -22 -14 -19 -16 -74 -16 -399 0 -459 -13 -423
152 -420 59 1 67 3 61 18 -4 10 -8 12 -11 5 -2 -7 -11 -8 -25 -3 -12 5 -43 7
-69 6 -25 -1 -52 1 -58 5 -8 5 -13 75 -17 221 -2 118 -5 219 -5 224 -1 6 2 26
6 45 6 27 5 32 -4 20 -9 -12 -10 -10 -5 10 4 14 10 63 12 110 3 47 10 88 17
92 6 5 1 8 -12 8 -21 0 -22 2 -8 15 8 9 13 22 10 30 -4 8 -1 15 5 15 6 0 11
-6 12 -12 0 -7 4 -4 9 7 5 11 9 14 9 8 1 -9 19 -12 66 -8 65 5 78 -2 50 -25
-12 -10 -15 -10 -15 0 0 8 -3 11 -6 7 -3 -3 -3 -11 1 -17 5 -8 13 -6 29 7 31
26 63 43 83 43 13 0 8 -6 -13 -19 -38 -23 -74 -68 -74 -92 0 -10 -20 -37 -45
-60 -27 -25 -49 -57 -55 -78 -14 -49 -13 -141 1 -141 7 0 9 -12 5 -35 -3 -19
-9 -51 -12 -70 -5 -29 -2 -39 24 -65 17 -16 40 -30 51 -30 12 0 26 -11 35 -28
8 -16 32 -44 54 -64 37 -33 37 -35 18 -44 -12 -5 -20 -16 -18 -25 1 -9 -11
-49 -28 -89 -17 -40 -28 -76 -25 -78 9 -9 20 9 45 73 13 33 24 61 25 63 1 1
19 -5 39 -13 20 -9 41 -13 46 -10 6 4 10 -18 10 -54 0 -34 4 -61 10 -61 6 0
10 24 10 54 l0 54 35 4 35 4 0 -58 c0 -32 4 -58 10 -58 6 0 10 28 11 63 1 53
2 58 10 32 5 -16 17 -45 26 -63 16 -30 22 -33 58 -30 33 2 41 7 43 26 2 12 9
22 17 22 7 0 20 3 29 6 13 5 16 -1 16 -25 0 -37 20 -41 50 -11 42 42 51 100
23 157 -19 41 -66 73 -105 73 l-27 0 26 40 c16 23 34 40 46 40 10 0 32 13 47
29 25 25 29 37 29 82 0 43 4 90 10 128 1 2 7 -2 14 -8 35 -28 37 40 2 74 -13
14 -27 41 -31 61 -4 20 -14 45 -23 56 -41 48 -64 66 -76 62 -19 -8 -124 63
-137 92 -12 26 -37 31 -56 12 -9 -9 -12 -4 -12 25 0 40 -11 45 -60 26z m37
-23 c0 -8 5 -28 12 -45 l13 -30 18 21 17 22 18 -27 c9 -15 40 -41 68 -58 29
-17 62 -41 75 -52 19 -17 22 -18 16 -4 -3 10 -1 17 5 17 13 0 41 -52 41 -77 0
-15 2 -15 9 -4 7 10 11 2 16 -30 5 -33 13 -48 28 -54 12 -6 23 -19 25 -29 3
-15 0 -18 -17 -13 -16 4 -21 1 -21 -15 0 -12 -8 -27 -17 -34 -17 -13 -17 -14
0 -8 9 3 17 4 17 2 0 -17 -27 -79 -48 -108 -13 -19 -22 -27 -19 -17 4 9 3 17
-2 17 -4 0 -8 8 -8 18 1 60 -4 86 -12 73 -7 -10 -11 -1 -16 31 -5 33 -12 48
-26 51 -10 3 -17 1 -13 -4 3 -5 -5 -9 -17 -9 -18 0 -20 3 -11 12 22 22 12 29
-34 22 -50 -6 -51 -2 -12 43 l20 21 -42 -14 c-24 -8 -45 -13 -47 -10 -3 3 -10
1 -17 -5 -25 -21 -89 -60 -92 -56 -2 2 0 18 5 35 6 21 6 32 0 32 -6 0 -7 6 -3
13 4 6 4 9 0 5 -4 -3 -7 -10 -6 -14 2 -9 -81 -47 -102 -46 -20 1 -78 -107 -78
-145 0 -13 -4 -22 -8 -19 -4 2 -6 -12 -4 -32 3 -34 2 -36 -12 -18 -19 24 -30
95 -22 143 6 35 5 37 -9 19 -11 -15 -15 -16 -16 -5 -2 32 3 76 12 107 9 28 13
31 27 20 14 -10 15 -10 5 2 -19 21 -17 25 27 54 22 14 39 30 39 34 -5 34 31
91 73 113 19 10 19 9 3 -23 l-16 -33 26 30 c20 24 27 27 34 16 7 -11 10 -9 13
10 2 13 18 33 37 46 39 27 48 28 48 9z m60 -328 c-2 -20 3 -23 31 -23 21 0 31
-4 28 -12 -8 -21 19 -34 47 -24 25 10 26 8 33 -34 3 -26 12 -45 19 -45 8 0 13
-17 14 -51 1 -62 -38 -152 -77 -176 -15 -9 -39 -24 -53 -34 -14 -9 -45 -23
-68 -30 -36 -11 -50 -10 -95 4 -80 26 -129 66 -161 134 -27 56 -28 61 -16 126
11 70 34 127 51 127 5 0 26 11 46 25 47 32 56 31 48 -1 -9 -36 12 -47 45 -24
43 29 96 60 103 60 4 0 7 -10 5 -22z m-330 -257 c16 -9 16 -10 1 -11 -27 0
-58 40 -57 74 0 31 0 31 19 -11 10 -22 27 -46 37 -52z m579 34 c-6 -24 -66
-65 -66 -46 0 5 7 11 15 15 8 3 23 22 32 41 18 38 29 32 19 -10z m-55 -176
c24 -12 32 -99 11 -122 -15 -17 -17 -15 -33 27 -9 24 -26 58 -38 74 -11 17
-21 33 -21 37 0 8 57 -3 81 -16z m-64 -41 c18 -29 35 -65 38 -80 6 -24 3 -28
-20 -34 -20 -5 -30 -2 -37 10 -15 26 -51 56 -75 62 -13 4 -23 10 -23 14 0 12
65 80 77 80 5 0 23 -24 40 -52z m117 -48 l6 -45 -15 45 c-17 52 -19 68 -6 55
5 -6 12 -30 15 -55z m-394 28 c12 -13 16 -24 11 -26 -14 -5 -81 28 -81 39 0
18 50 8 70 -13z m103 6 l32 6 -28 -25 c-36 -32 -47 -31 -75 5 l-23 29 31 -11
c17 -5 45 -8 63 -4z m43 -31 c-10 -10 -19 5 -10 18 6 11 8 11 12 0 2 -7 1 -15
-2 -18z m75 -35 l34 -33 -27 -3 c-39 -5 -68 14 -68 43 0 34 21 32 61 -7z m160
-46 c-5 -10 -17 -24 -25 -32 -14 -11 -16 -9 -16 15 0 16 8 37 17 47 15 16 18
17 25 4 5 -9 5 -24 -1 -34z m-143 -5 c14 -1 22 -7 20 -17 -5 -25 -42 -23 -68
5 l-25 27 25 -7 c14 -3 35 -7 48 -8z"/>
<path d="M567 866 c-3 -8 -2 -18 3 -21 13 -8 20 9 11 24 -6 10 -10 9 -14 -3z"/>
<path d="M644 809 c-3 -6 -2 -15 4 -21 6 -6 12 -6 17 3 6 8 4 10 -5 4 -10 -6
-12 -4 -7 8 7 19 2 23 -9 6z"/>
<path d="M700 781 c0 -6 4 -13 10 -16 6 -3 7 1 4 9 -7 18 -14 21 -14 7z"/>
<path d="M256 588 c3 -5 10 -6 15 -3 13 9 11 12 -6 12 -8 0 -12 -4 -9 -9z"/>
<path d="M300 520 c-6 -12 -10 -23 -8 -24 2 -1 33 0 71 2 70 4 88 16 37 26
-16 3 -43 9 -59 12 -23 4 -32 1 -41 -16z"/>
<path d="M645 535 c-5 -2 -27 -6 -47 -10 -59 -9 -45 -23 30 -27 37 -2 68 -3
70 -2 2 1 -1 12 -8 23 -10 20 -22 24 -45 16z"/>
<path d="M327 452 c-28 -17 -31 -36 -6 -38 8 0 22 -4 32 -9 21 -9 50 12 43 32
-3 8 -1 11 4 8 6 -3 10 -13 10 -21 0 -8 4 -13 10 -9 6 3 5 15 -2 30 -13 30
-50 33 -91 7z m13 -16 c0 -3 -4 -8 -10 -11 -5 -3 -10 -1 -10 4 0 6 5 11 10 11
6 0 10 -2 10 -4z"/>
<path d="M589 468 c0 -2 -2 -16 -5 -33 -3 -30 -3 -30 8 -5 l11 25 6 -25 c9
-33 50 -41 58 -11 3 11 9 18 14 15 5 -3 7 -10 4 -15 -4 -5 -2 -9 4 -9 22 0 20
20 -5 39 -21 17 -91 30 -95 19z"/>
<path d="M455 431 c-3 -5 -2 -12 3 -15 5 -3 9 1 9 9 0 17 -3 19 -12 6z"/>
<path d="M481 383 c-1 -23 3 -33 14 -33 8 0 15 5 15 11 0 5 -4 8 -9 4 -5 -3
-12 7 -14 22 -4 26 -4 26 -6 -4z"/>
<path d="M525 399 c-3 -4 2 -6 10 -5 21 3 28 13 10 13 -9 0 -18 -4 -20 -8z"/>
<path d="M307 383 c-10 -9 -9 -23 1 -23 5 0 9 7 9 15 0 17 -1 18 -10 8z"/>
<path d="M425 380 c-4 -6 -11 -7 -17 -4 -7 4 -8 2 -4 -5 6 -8 12 -9 20 -2 7 6
17 7 21 3 5 -4 5 -1 1 6 -9 15 -13 15 -21 2z"/>
<path d="M654 350 c0 -13 4 -16 10 -10 7 7 7 13 0 20 -6 6 -10 3 -10 -10z"/>
<path d="M400 285 c0 -20 40 -45 81 -51 40 -6 102 22 107 49 3 15 -7 17 -92
17 -78 0 -96 -3 -96 -15z m156 -20 c-11 -8 -38 -15 -61 -15 -23 0 -50 7 -61
15 -17 13 -11 14 61 14 72 0 78 -1 61 -14z"/>
<path d="M650 141 c0 -6 4 -13 10 -16 6 -3 7 1 4 9 -7 18 -14 21 -14 7z"/>
<path d="M695 101 c-3 -5 -1 -12 5 -16 5 -3 10 1 10 9 0 18 -6 21 -15 7z"/>
<path d="M627 900 c14 -16 29 -30 31 -30 3 0 -3 10 -14 21 -19 22 -19 22 3 10
12 -6 25 -16 28 -21 3 -6 12 -10 18 -10 8 0 7 3 -2 9 -7 5 -11 13 -8 18 9 14
88 15 103 2 10 -9 14 -8 14 0 0 7 10 9 28 5 15 -4 32 -7 37 -8 11 -1 34 -35
34 -51 1 -5 -4 -3 -9 5 -8 11 -9 9 -5 -10 9 -41 12 -189 4 -184 -5 3 -1 -12 7
-32 16 -38 12 -84 -7 -84 -6 0 -7 -5 -3 -12 9 -13 15 -354 7 -381 -3 -10 -11
-16 -18 -13 -9 3 -12 0 -8 -10 3 -7 0 -14 -6 -14 -6 0 -11 -4 -11 -10 0 -17
36 -11 53 8 15 17 17 59 17 398 0 327 -2 383 -16 402 -14 21 -22 22 -160 22
l-144 0 27 -30z"/>
<path d="M690 896 c0 -2 7 -7 16 -10 8 -3 12 -2 9 4 -6 10 -25 14 -25 6z"/>
<path d="M783 825 c0 -8 4 -12 9 -9 5 3 6 10 3 15 -9 13 -12 11 -12 -6z"/>
<path d="M845 750 c-3 -5 -1 -10 4 -10 6 0 11 5 11 10 0 6 -2 10 -4 10 -3 0
-8 -4 -11 -10z"/>
<path d="M171 335 c0 -5 3 -16 8 -23 7 -11 9 -10 14 3 4 9 3 14 -2 10 -5 -3
-12 1 -14 7 -3 7 -6 9 -6 3z"/>
<path d="M230 296 c0 -2 7 -7 16 -10 8 -3 12 -2 9 4 -6 10 -25 14 -25 6z"/>
<path d="M245 231 c-3 -6 -4 -15 -1 -19 6 -10 42 -9 52 1 4 4 14 1 23 -6 14
-11 14 -10 2 6 -10 12 -17 15 -24 8 -7 -7 -16 -6 -28 5 -11 10 -19 12 -24 5z"/>
<path d="M851 224 c0 -11 3 -14 6 -6 3 7 2 16 -1 19 -3 4 -6 -2 -5 -13z"/>
<path d="M952 65 c0 -16 2 -22 5 -12 2 9 2 23 0 30 -3 6 -5 -1 -5 -18z"/>
<path d="M10 61 c0 -5 7 -12 16 -15 22 -9 24 -8 24 9 0 8 -9 15 -20 15 -11 0
-20 -4 -20 -9z"/>
<path d="M60 66 c0 -2 9 -6 20 -9 11 -3 18 -1 14 4 -5 9 -34 13 -34 5z"/>
<path d="M376 48 c-8 -32 -7 -48 3 -48 13 0 24 51 13 62 -6 6 -12 0 -16 -14z"/>
<path d="M50 20 c25 -4 49 -4 55 1 5 5 -13 8 -45 8 l-55 -2 45 -7z"/>
</g>
</svg>
