<?xml version="1.0" encoding="utf-8"?>
<!DOCTYPE svg PUBLIC "-//W3C//DTD SVG 1.1//EN" "http://www.w3.org/Graphics/SVG/1.1/DTD/svg11.dtd">
<svg version="1.1" id="Layer_1"
	 xmlns="http://www.w3.org/2000/svg" xmlns:xlink="http://www.w3.org/1999/xlink" x="0px" y="0px" width="126px" height="126px"
	 viewBox="0 0 126 126" enable-background="new 0 0 126 126" xml:space="preserve">
<switch>
	<g>
		<g>
			<g>
				<path fill="#231F20" d="M94.376,95.971c0,4.422-3.582,8-8.002,8c-4.418,0-8-3.578-8-8c0-4.414,3.582-8,8-8
					C90.795,87.971,94.376,91.557,94.376,95.971z"/>
			</g>
			<polygon fill="#FFFFFF" points="86.374,98.051 83.324,100.52 84.729,96.855 81.438,94.717 85.36,94.92 86.374,91.127 
				87.394,94.92 91.314,94.717 88.022,96.855 89.428,100.52 			"/>
		</g>
		<g>
			<polygon fill="#E34C26" points="48.226,67.618 44.937,30.724 81.063,30.724 77.77,67.621 62.991,71.718 			"/>
			<polygon fill="#F06529" points="63,33.74 63,68.584 74.95,65.271 77.765,33.74 			"/>
			<polygon fill="#FFFFFF" points="51.667,38.266 52.887,51.949 68.57,51.949 68.044,57.818 62.994,59.183 57.954,57.821 
				57.617,54.052 53.075,54.052 53.724,61.316 62.993,63.891 72.274,61.316 73.517,47.425 57.025,47.425 56.612,42.791 
				73.914,42.791 73.928,42.791 74.333,38.266 			"/>
			<g>
				<polygon fill="#EBEBEB" points="63,38.266 51.667,38.266 52.887,51.949 63,51.949 63,47.425 57.025,47.425 56.612,42.791 
					63,42.791 				"/>
				<polygon fill="#EBEBEB" points="63,59.181 62.994,59.183 57.954,57.821 57.617,54.052 53.075,54.052 53.724,61.316 
					62.993,63.891 63,63.889 				"/>
			</g>
		</g>
		<g>
			<polygon fill="#E54B26" points="43.64,102.308 37.813,103.971 31.991,102.308 30.711,87.971 44.919,87.971 			"/>
			<polygon fill="#FFFFFF" stroke="#FFFFFF" stroke-width="0.25" stroke-miterlimit="10" points="34.279,99.894 34.062,97.44 
				35.581,97.44 35.697,98.729 37.834,99.177 39.934,98.728 40.166,96.16 33.946,96.16 33.488,91.026 42.145,91.026 42.009,92.544 
				35.146,92.544 35.331,94.645 41.822,94.645 41.353,99.894 37.813,100.965 			"/>
			<rect x="33.488" y="96.924" fill="#E54B26" width="2.672" height="0.836"/>
		</g>
	</g>
</switch>
</svg>
